<?xml version="1.0" encoding="utf-8"?>
<!-- Generator: Adobe Illustrator 25.0.1, SVG Export Plug-In . SVG Version: 6.00 Build 0)  -->
<svg version="1.1" id="Слой_1" xmlns="http://www.w3.org/2000/svg" xmlns:xlink="http://www.w3.org/1999/xlink" x="0px" y="0px"
	 viewBox="0 0 841.89 595.28" style="enable-background:new 0 0 841.89 595.28;" xml:space="preserve">
<style type="text/css">
	.st0{fill:#A800FF;}
	.st1{fill:#4800FF;}
	.st2{fill:#1E0E00;}
	.st3{fill:#FF00FF;}
</style>


<path class="st2" d="M720.46,464.27h-76.6c-1.57,0-2.94-1.05-3.36-2.56l-10.43-37.54c-0.43-1.55,0.24-3.2,1.65-3.98
	c6.3-3.51,23.44-14.93,32.98-39.75c7.59-19.73,7.76-51.82,7.56-63.04c-0.04-2.13-1.96-3.72-4.06-3.37l-15.48,2.58
	c-1.68,0.28-2.92,1.74-2.92,3.44l0,0c0,1.56-1.03,2.93-2.53,3.36l-21.46,6.13c-1.28,0.37-2.66-0.03-3.55-1.02l-13.35-14.83
	c-1.14-1.26-1.2-3.16-0.15-4.49l38.12-48.52c0.66-0.84,1.67-1.33,2.74-1.33h5.99c1.93,0,3.49-1.56,3.49-3.49v-11.86
	c0-3.38,4.32-4.79,6.31-2.05l7.95,14.65c0.4,0.56,0.95,0.98,1.6,1.22c6.46,2.37,43.91,18.24,58.66,72.32
	c19.97,73.21-4.65,122.64-10.14,132.37C722.87,463.6,721.71,464.27,720.46,464.27z"/>
<path class="st2" d="M728.01,531.33h-94.33c-4.82,0-8.72-3.91-8.72-8.72v-53.34c0-2.76,2.24-5,5-5h101.78c2.76,0,5,2.24,5,5v53.34
	C736.73,527.43,732.82,531.33,728.01,531.33z"/>
<path class="st0" d="M743.41,490.35H618.27c-2.49,0-4.5-2.01-4.5-4.5v-7.77c0-2.49,2.01-4.5,4.5-4.5h125.13c2.49,0,4.5,2.01,4.5,4.5
	v7.77C747.91,488.33,745.89,490.35,743.41,490.35z"/>
<path class="st0" d="M747,522.02l-132.31,0c-3.59,0-6.5-2.91-6.5-6.5V504.3c0-3.59,2.91-6.5,6.5-6.5H747c3.59,0,6.5,2.91,6.5,6.5
	v11.22C753.5,519.11,750.59,522.02,747,522.02z"/>
</svg>
