<?xml version="1.0" encoding="utf-8"?>
<!-- Generator: Adobe Illustrator 25.0.1, SVG Export Plug-In . SVG Version: 6.00 Build 0)  -->
<svg version="1.1" id="Слой_1" xmlns="http://www.w3.org/2000/svg" xmlns:xlink="http://www.w3.org/1999/xlink" x="0px" y="0px"
	 viewBox="0 0 841.89 595.28" style="enable-background:new 0 0 841.89 595.28;" xml:space="preserve">
<style type="text/css">
	.st0{fill:#A800FF;}
	.st1{fill:#4800FF;}
	.st2{fill:#1E0E00;}
	.st3{fill:#FF00FF;}
</style>
<path class="st0" d="M557.03,532.27H445.26c-13,0-22.58-12.15-19.54-24.8c13.01-53.95,42.35-181.1,42.35-230.84
	c0-28.7-8.89-101.72-12.94-133.48c-1.02-8.04,5.24-15.14,13.34-15.14h65.31c8.11,0,14.37,7.11,13.34,15.15
	c-4.05,31.67-12.93,104.3-12.93,132.86c0,49.88,29.36,177.44,42.37,231.48C579.61,520.12,570.03,532.27,557.03,532.27z"/>
<circle class="st1" cx="501.14" cy="97.26" r="29.81"/>
<path class="st1" d="M547.31,216.49h-92.33c-3.31,0-6-2.69-6-6v-10.36c0-3.31,2.69-6,6-6h92.33c3.31,0,6,2.69,6,6v10.36
	C553.31,213.81,550.62,216.49,547.31,216.49z"/>
<path class="st1" d="M540.85,287.28h-79.42c-2.76,0-5-2.24-5-5v-8.63c0-2.76,2.24-5,5-5h79.42c2.76,0,5,2.24,5,5v8.63
	C545.85,285.05,543.62,287.28,540.85,287.28z"/>
<path class="st1" d="M582.13,510.84H420.15c-4.14,0-7.5-3.36-7.5-7.5V490.4c0-4.14,3.36-7.5,7.5-7.5h161.98c4.14,0,7.5,3.36,7.5,7.5
	v12.94C589.63,507.48,586.28,510.84,582.13,510.84z"/>
<path class="st1" d="M576.25,466.13H426.04c-2.76,0-5-2.24-5-5v-8.63c0-2.76,2.24-5,5-5h150.22c2.76,0,5,2.24,5,5v8.63
	C581.25,463.89,579.01,466.13,576.25,466.13z"/>
</svg>
