<?xml version="1.0" encoding="utf-8"?>
<!-- Generator: Adobe Illustrator 25.0.1, SVG Export Plug-In . SVG Version: 6.00 Build 0)  -->
<svg version="1.1" id="Слой_1" xmlns="http://www.w3.org/2000/svg" xmlns:xlink="http://www.w3.org/1999/xlink" x="0px" y="0px"
	 viewBox="0 0 841.89 595.28" style="enable-background:new 0 0 841.89 595.28;" xml:space="preserve">
<style type="text/css">
	.st0{fill:#FF00FF;}
	.st1{fill:#1E0E00;}
	.st2{fill:#A800FF;}
	.st3{font-family:'MyriadPro-Bold';}
	.st4{font-size:47.7306px;}
	.st5{fill:#DBDBDB;}
	.st6{fill:#FFFFFF;}
</style>

<circle class="st1" cx="264.61" cy="386.82" r="75.33"/>
<path class="st1" d="M264.61,395.47c-34.5,0-62.56-28.06-62.56-62.56s28.06-62.56,62.56-62.56s62.56,28.06,62.56,62.56
	S299.11,395.47,264.61,395.47z M264.61,287.67c-24.95,0-45.24,20.3-45.24,45.24c0,24.95,20.3,45.24,45.24,45.24
	c24.95,0,45.24-20.3,45.24-45.24C309.85,307.97,289.56,287.67,264.61,287.67z"/>
<g>
	<text transform="matrix(1 0 0 1 208.5098 395.4737)" class="st2 st3 st4">{dev}</text>
</g>
<path class="st2" d="M172.78,436.18c0,0.1,0,0.2,0,0.3c0,50.57,41,91.57,91.57,91.57s91.57-41,91.57-91.57c0-0.1,0-0.2,0-0.3H172.78
	z"/>
</svg>
