<?xml version="1.0" encoding="utf-8"?>
<!-- Generator: Adobe Illustrator 25.0.1, SVG Export Plug-In . SVG Version: 6.00 Build 0)  -->
<svg version="1.1" id="Слой_1" xmlns="http://www.w3.org/2000/svg" xmlns:xlink="http://www.w3.org/1999/xlink" x="0px" y="0px"
	 viewBox="0 0 841.89 595.28" style="enable-background:new 0 0 841.89 595.28;" xml:space="preserve">
<style type="text/css">
	.st0{fill:#A800FF;}
	.st1{fill:#4800FF;}
	.st2{fill:#1E0E00;}
	.st3{fill:#FF00FF;}
</style>
<path class="st3" d="M400.15,531.33h-59.61V265.75c0-6.63,5.37-12,12-12h43.95c2.03,0,3.67,1.64,3.67,3.67V531.33z"/>
<path class="st0" d="M293.96,531.33h-59.61V349.59c0-6.63,5.37-12,12-12h43.95c2.03,0,3.67,1.64,3.67,3.67V531.33z"/>
<path class="st1" d="M200.82,531.33H141.2v-99.78c0-6.63,5.37-12,12-12h43.95c2.03,0,3.67,1.64,3.67,3.67V531.33z"/>
<path class="st2" d="M768,559.45H114.28c-7.77,0-14.06-6.3-14.06-14.06l0,0c0-7.77,6.3-14.06,14.06-14.06H768
	c7.77,0,14.06,6.3,14.06,14.06l0,0C782.06,553.16,775.77,559.45,768,559.45z"/>
</svg>
